<mxfile host="app.diagrams.net" modified="2022-07-03T07:15:48.661Z" agent="5.0 (Windows NT 10.0; Win64; x64) AppleWebKit/537.36 (KHTML, like Gecko) Chrome/100.0.4896.160 YaBrowser/22.5.3.684 Yowser/2.5 Safari/537.36" etag="T6AdB5NGOUQ5_aMBpzt6" version="20.0.4" type="github">
  <diagram id="JdfxPXumMz7mbylBswDx" name="Page-1">
    <mxGraphModel dx="1550" dy="863" grid="1" gridSize="10" guides="1" tooltips="1" connect="1" arrows="1" fold="1" page="1" pageScale="1" pageWidth="827" pageHeight="1169" math="0" shadow="0">
      <root>
        <mxCell id="0" />
        <mxCell id="1" parent="0" />
        <mxCell id="DFCimMSdHchpvhJt0v_h-1" value="Задача 4*. Нарисовать блок-схему&#xa;Найти среднее арифметическое среди всех элементов массива." style="text;whiteSpace=wrap;html=1;" vertex="1" parent="1">
          <mxGeometry x="210" width="360" height="50" as="geometry" />
        </mxCell>
        <mxCell id="DFCimMSdHchpvhJt0v_h-3" value="" style="edgeStyle=orthogonalEdgeStyle;rounded=0;orthogonalLoop=1;jettySize=auto;html=1;" edge="1" parent="1" source="DFCimMSdHchpvhJt0v_h-4" target="DFCimMSdHchpvhJt0v_h-5">
          <mxGeometry relative="1" as="geometry" />
        </mxCell>
        <mxCell id="DFCimMSdHchpvhJt0v_h-4" value="Начало" style="ellipse;whiteSpace=wrap;html=1;" vertex="1" parent="1">
          <mxGeometry x="354" y="50" width="120" height="40" as="geometry" />
        </mxCell>
        <mxCell id="DFCimMSdHchpvhJt0v_h-7" value="" style="edgeStyle=orthogonalEdgeStyle;rounded=0;orthogonalLoop=1;jettySize=auto;html=1;" edge="1" parent="1" source="DFCimMSdHchpvhJt0v_h-5">
          <mxGeometry relative="1" as="geometry">
            <mxPoint x="414" y="190" as="targetPoint" />
          </mxGeometry>
        </mxCell>
        <mxCell id="DFCimMSdHchpvhJt0v_h-5" value="size&lt;br&gt;array[size]" style="shape=parallelogram;perimeter=parallelogramPerimeter;whiteSpace=wrap;html=1;fixedSize=1;" vertex="1" parent="1">
          <mxGeometry x="354" y="120" width="120" height="40" as="geometry" />
        </mxCell>
        <mxCell id="DFCimMSdHchpvhJt0v_h-12" value="" style="edgeStyle=orthogonalEdgeStyle;rounded=0;orthogonalLoop=1;jettySize=auto;html=1;" edge="1" parent="1" source="DFCimMSdHchpvhJt0v_h-9" target="DFCimMSdHchpvhJt0v_h-11">
          <mxGeometry relative="1" as="geometry" />
        </mxCell>
        <mxCell id="DFCimMSdHchpvhJt0v_h-9" value="i = 0" style="rounded=0;whiteSpace=wrap;html=1;" vertex="1" parent="1">
          <mxGeometry x="354" y="190" width="120" height="40" as="geometry" />
        </mxCell>
        <mxCell id="DFCimMSdHchpvhJt0v_h-10" style="edgeStyle=orthogonalEdgeStyle;rounded=0;orthogonalLoop=1;jettySize=auto;html=1;exitX=0.5;exitY=1;exitDx=0;exitDy=0;" edge="1" parent="1" source="DFCimMSdHchpvhJt0v_h-9" target="DFCimMSdHchpvhJt0v_h-9">
          <mxGeometry relative="1" as="geometry" />
        </mxCell>
        <mxCell id="DFCimMSdHchpvhJt0v_h-14" value="" style="edgeStyle=orthogonalEdgeStyle;rounded=0;orthogonalLoop=1;jettySize=auto;html=1;" edge="1" parent="1" source="DFCimMSdHchpvhJt0v_h-11" target="DFCimMSdHchpvhJt0v_h-13">
          <mxGeometry relative="1" as="geometry" />
        </mxCell>
        <mxCell id="DFCimMSdHchpvhJt0v_h-17" value="" style="edgeStyle=orthogonalEdgeStyle;rounded=0;orthogonalLoop=1;jettySize=auto;html=1;" edge="1" parent="1" source="DFCimMSdHchpvhJt0v_h-11" target="DFCimMSdHchpvhJt0v_h-16">
          <mxGeometry relative="1" as="geometry" />
        </mxCell>
        <mxCell id="DFCimMSdHchpvhJt0v_h-11" value="i &amp;lt; size" style="rhombus;whiteSpace=wrap;html=1;rounded=0;" vertex="1" parent="1">
          <mxGeometry x="337" y="260" width="154" height="80" as="geometry" />
        </mxCell>
        <mxCell id="DFCimMSdHchpvhJt0v_h-13" value="summ = summ + array[i]" style="whiteSpace=wrap;html=1;rounded=0;" vertex="1" parent="1">
          <mxGeometry x="341" y="370" width="146" height="40" as="geometry" />
        </mxCell>
        <mxCell id="DFCimMSdHchpvhJt0v_h-15" value="" style="endArrow=classic;html=1;rounded=0;entryX=0;entryY=0.5;entryDx=0;entryDy=0;" edge="1" parent="1" target="DFCimMSdHchpvhJt0v_h-11">
          <mxGeometry width="50" height="50" relative="1" as="geometry">
            <mxPoint x="414" y="410" as="sourcePoint" />
            <mxPoint x="464" y="360" as="targetPoint" />
            <Array as="points">
              <mxPoint x="414" y="440" />
              <mxPoint x="320" y="440" />
              <mxPoint x="320" y="300" />
            </Array>
          </mxGeometry>
        </mxCell>
        <mxCell id="DFCimMSdHchpvhJt0v_h-19" value="" style="edgeStyle=orthogonalEdgeStyle;rounded=0;orthogonalLoop=1;jettySize=auto;html=1;" edge="1" parent="1" source="DFCimMSdHchpvhJt0v_h-16" target="DFCimMSdHchpvhJt0v_h-18">
          <mxGeometry relative="1" as="geometry" />
        </mxCell>
        <mxCell id="DFCimMSdHchpvhJt0v_h-16" value="average = summ/size" style="whiteSpace=wrap;html=1;rounded=0;" vertex="1" parent="1">
          <mxGeometry x="588" y="270" width="120" height="60" as="geometry" />
        </mxCell>
        <mxCell id="DFCimMSdHchpvhJt0v_h-21" value="" style="edgeStyle=orthogonalEdgeStyle;rounded=0;orthogonalLoop=1;jettySize=auto;html=1;exitX=0.503;exitY=0.893;exitDx=0;exitDy=0;exitPerimeter=0;" edge="1" parent="1" source="DFCimMSdHchpvhJt0v_h-18" target="DFCimMSdHchpvhJt0v_h-20">
          <mxGeometry relative="1" as="geometry" />
        </mxCell>
        <mxCell id="DFCimMSdHchpvhJt0v_h-18" value="average" style="shape=document;whiteSpace=wrap;html=1;boundedLbl=1;rounded=0;" vertex="1" parent="1">
          <mxGeometry x="588" y="350" width="120" height="80" as="geometry" />
        </mxCell>
        <mxCell id="DFCimMSdHchpvhJt0v_h-20" value="конец" style="ellipse;whiteSpace=wrap;html=1;rounded=0;" vertex="1" parent="1">
          <mxGeometry x="588" y="470" width="120" height="40" as="geometry" />
        </mxCell>
      </root>
    </mxGraphModel>
  </diagram>
</mxfile>
